<svg width="1023" height="1023" xmlns="http://www.w3.org/2000/svg" xmlns:xlink="http://www.w3.org/1999/xlink" xml:space="preserve" overflow="hidden"><g transform="translate(-541 -651)"><path d="M1089.32 1059.66 1089.98 1060.29C1091.36 1061.22 1092.97 1061.3 1094.71 1061.51L1096.96 1061.81C1097.51 1061.9 1097.51 1061.9 1098.08 1061.96 1106.76 1063.16 1106.76 1063.16 1110.08 1065.41L1110.6 1066.22C1111.52 1066.52 1111.52 1066.52 1112.66 1066.75L1113.96 1067.03 1115.3 1067.33C1118.68 1068.13 1121.1 1068.79 1123.54 1070.86 1125.05 1071.85 1126.78 1072.29 1128.61 1072.8 1131.34 1073.58 1132.95 1074.2 1134.37 1076.25 1135.48 1077.4 1137.18 1077.64 1138.85 1078.1 1140.96 1078.87 1142.84 1079.99 1144.34 1081.42L1144.34 1082.25 1145.37 1082.53C1148.95 1083.76 1151.18 1085.07 1153.38 1087.62 1154.19 1088.39 1155.19 1089 1156.32 1089.43 1158.36 1090.34 1159.16 1091.36 1160.3 1092.97 1160.91 1093.7 1161.74 1094.29 1162.7 1094.7 1165.32 1096.02 1166.8 1098.18 1168.22 1100.31L1168.22 1101.14 1169.14 1101.45C1172.21 1102.81 1173.76 1105.57 1174.85 1108.08 1175.45 1109.05 1175.45 1109.05 1177.01 1109.68 1178.94 1110.77 1179.42 1111.85 1180.14 1113.56 1181.03 1115.74 1182.54 1117.7 1184.57 1119.28 1185.94 1120.59 1186.34 1122.1 1186.9 1123.73 1187.49 1125.84 1188.65 1127.84 1190.31 1129.55 1192.95 1131.96 1193.43 1134.91 1193.95 1137.96 1194.43 1140.77 1194.96 1143.04 1197.03 1145.41 1202.57 1152.29 1200.48 1164.23 1200.46 1171.96L1200.46 1176.29C1200.5 1180.9 1200.41 1185.52 1200.21 1190.13 1200.19 1191.92 1199.54 1193.68 1198.32 1195.17 1197.07 1196.04 1197.07 1196.04 1195.74 1196.82 1194.54 1197.7 1193.41 1198.68 1192.42 1199.73 1190.53 1201.38 1188.87 1201.68 1186.12 1201.88 1180.7 1201.92 1176.75 1201.53 1172.65 1198.56 1167.61 1194.2 1168.5 1187.82 1168.77 1182.28L1168.99 1179.26C1169.97 1168.28 1169.97 1168.28 1166.26 1157.94 1164.05 1154.6 1163.68 1150.68 1163.13 1147 1162.52 1143.28 1161.8 1140.76 1158.36 1138.1 1157.75 1137.03 1157.27 1135.94 1156.92 1134.79 1156.32 1133.34 1155.84 1131.84 1155.52 1130.32 1155.08 1128.94 1153.62 1128.58 1152.13 1127.83 1151.13 1126.73 1150.37 1125.5 1149.91 1124.18 1149.17 1122.49 1147.97 1121.61 1146.35 1120.41 1143.95 1118.54 1142.32 1116.11 1141.73 1113.45 1141.37 1113.42 1140.98 1113.41 1140.61 1113.38 1138.63 1112.93 1137.84 1112.25 1136.55 1110.99L1136.1 1109.49 1135.51 1108.12C1133.78 1107.63 1133.78 1107.63 1131.88 1107.3 1130.29 1106.27 1129.44 1105.64 1128.87 1104.08L1128.76 1103.18 1127.91 1103.03C1124.72 1102.34 1121.78 1100.97 1119.42 1099.08L1118.9 1097.85C1117.72 1097.37 1117.72 1097.37 1116.32 1097.02 1115.43 1096.78 1114.57 1096.54 1113.68 1096.3L1112.37 1095.96C1111.11 1095.39 1111.11 1095.39 1110.25 1094.19 1108.51 1092.37 1106.59 1092.14 1103.88 1091.62 1096.87 1090.16 1096.87 1090.16 1095.31 1088.37 1094.17 1087.25 1093.19 1087.2 1091.44 1086.95L1089.46 1086.65C1087.88 1086.44 1086.29 1086.24 1084.68 1086.08 1079.2 1085.48 1074.02 1084.89 1069.16 1082.62 1065.93 1081.54 1062 1081.77 1058.57 1081.77L1053.9 1081.77 1049.12 1081.75 1046.03 1081.75 1044.61 1081.74C1040.7 1081.74 1036.4 1081.84 1032.93 1083.43 1028.43 1085.38 1022.72 1085.9 1017.68 1086.38 1012.22 1086.89 1012.22 1086.89 1007.74 1089.2 1005.6 1090.7 1003.4 1091.15 1000.65 1091.65L999.302 1091.9C996.108 1092.5 996.108 1092.5 994.835 1092.5L994.466 1093.43C993.211 1095.54 991.236 1096.23 988.578 1097.01 986.659 1097.5 985.035 1098.53 983.945 1099.91 982.026 1101.29 979.719 1102.27 977.228 1102.78L975.64 1103.18C975.049 1104.35 975.049 1104.35 974.588 1105.64 973.351 1106.74 971.82 1107.58 970.085 1108.06 968.516 1108.66 968.368 1109.41 967.777 1110.66 966.983 1111.98 965.71 1112.61 964.215 1113.45L962.665 1113.86C962.148 1114.61 962.148 1114.61 961.742 1115.51 960.487 1117.91 958.586 1120.08 956.131 1121.83 955.134 1122.7 954.729 1123.62 954.193 1124.69 953.344 1126.52 951.757 1128.07 949.671 1129.06L948.637 1129.06 948.508 1130.57C947.955 1134.36 946.939 1137.9 943.229 1140.49 941.051 1142.86 941.107 1146.48 940.646 1149.3 939.391 1156.75 939.391 1156.75 936.954 1159.51 936.105 1160.92 935.625 1162.46 935.57 1164.02L935.441 1165.03C934.906 1169.88 935.072 1174.74 935.146 1179.59L935.201 1185.36 935.238 1186.67C935.256 1190.19 935.238 1194.08 932.026 1196.82 930.826 1197.12 929.627 1197.39 928.39 1197.63 927.781 1198.41 927.781 1198.41 927.357 1199.28 925.511 1200.83 923.942 1201.19 921.34 1201.31 915.877 1201.38 915.877 1201.38 913.698 1200 912.296 1198.88 912.296 1198.88 911.336 1197.84 910.45 1197 909.361 1196.32 908.124 1195.87 906.408 1195.2 905.19 1193.92 904.802 1192.4 903.75 1188.84 903.916 1185.19 903.916 1181.57L903.916 1179.74 903.898 1175.94 903.898 1172.1C903.824 1159.93 903.824 1159.93 904.396 1153.9L904.489 1152.76C904.894 1149.06 906.168 1145.88 909.195 1143.02 909.657 1141.82 909.657 1141.82 909.841 1140.53L910.136 1139.07 910.69 1136.1C911.336 1132.9 912.369 1130.77 914.898 1128.23 916.116 1126.76 916.965 1125.11 917.39 1123.38 918.239 1120.95 919.236 1118.89 921.635 1117.15L922.687 1117.15 922.964 1116.44C925.419 1110.53 925.419 1110.53 927.357 1109.35L928.408 1109.01C929.516 1108.6 929.516 1108.6 929.811 1107.78L930.051 1106.88C930.864 1104.7 932.451 1103.45 934.426 1101.83 935.681 1100.69 936.788 1099.46 937.767 1098.15 939.095 1096.42 940.886 1094.98 943.027 1093.91 943.968 1093.31 944.724 1092.53 945.26 1091.66 946.423 1090.04 947.659 1089.43 949.69 1088.54 950.705 1087.98 951.554 1087.26 952.181 1086.41 953.769 1084.56 955.762 1083.66 958.161 1082.55 959.343 1081.95 960.413 1081.21 961.336 1080.35 963.219 1078.72 965.452 1078.19 968.017 1077.43 969.863 1076.73 970.527 1075.83 971.487 1074.44 972.631 1073.76 973.905 1073.24 975.253 1072.88 977.504 1072.33 979.59 1071.39 981.343 1070.11 983.558 1068.46 985.718 1068.01 988.615 1067.47 991.144 1067.06 993.488 1066.15 995.444 1064.8 998.785 1062.62 1002.79 1062.39 1006.94 1061.93 1010.19 1061.55 1012.31 1061.07 1015.08 1059.66 1028.37 1053.56 1076.32 1053.02 1089.32 1059.66Z" fill="#212529" fill-rule="evenodd"/><path d="M1044.21 1111.91 1050.05 1111.91 1054.08 1111.89C1074.96 1111.79 1074.96 1111.79 1079.22 1115.65 1081 1116.83 1082.61 1117.05 1084.69 1117.4 1088.33 1118.08 1091.44 1119 1093.92 1121.8 1095.45 1123.08 1097.52 1123.5 1099.4 1124.14 1101.24 1124.92 1102.37 1125.75 1103.22 1127.55 1103.86 1128.71 1104.5 1128.86 1105.76 1129.29 1107.69 1130.04 1108.69 1130.79 1109.84 1132.51 1110.68 1133.96 1110.68 1133.96 1112.14 1134.51 1113.86 1135.29 1115.21 1136.71 1115.91 1138.46 1116.43 1139.48 1116.43 1139.48 1117.81 1140.2 1119.77 1141.5 1120.83 1142.93 1121.59 1145.1 1122.32 1146.62 1123.5 1147.1 1124.94 1148.02 1126.47 1149.82 1126.82 1151.95 1127.33 1154.19 1127.88 1155.59 1128.3 1155.62 1129.68 1156.22 1131.44 1157.96 1132.04 1159.73 1132.58 1162.06L1132.81 1162.99C1133.22 1164.61 1133.49 1166.16 1133.62 1167.8L1133.91 1169.45C1134.8 1170.07 1134.8 1170.07 1135.8 1170.37 1139.36 1175.7 1138.82 1182.62 1138.81 1188.76 1138.81 1191 1138.81 1193.23 1138.84 1195.47L1138.87 1196.68C1138.94 1200.09 1137.51 1203.34 1134.98 1205.62 1134.68 1205.91 1134.39 1206.21 1134.09 1206.49 1131.27 1208.49 1128.38 1208.89 1124.94 1208.82L1123.87 1208.86C1120.93 1208.97 1118.04 1208.11 1115.68 1206.37L1114.65 1205.37 1113.6 1204.36C1111.08 1201.2 1110.99 1198.17 1110.74 1194.28 1110.39 1189.61 1110 1185.68 1107.39 1181.62 1105.79 1178.87 1105.39 1175.49 1104.78 1172.42 1104.25 1169.55 1104.25 1169.55 1102.27 1167.45L1100.87 1166.71C1100.08 1165.43 1100.08 1165.43 1099.48 1164.05 1098.67 1162.08 1097.31 1160.39 1095.57 1159.16 1094.65 1158.41 1093.81 1157.57 1093.05 1156.66 1091.71 1155.16 1090.21 1153.79 1088.59 1152.57L1087.76 1151.67C1086.37 1150.47 1084.84 1149.87 1083.13 1149.17 1081.99 1148.47 1081.99 1148.47 1081.25 1147.12 1079.44 1144.95 1077.12 1144.85 1074.37 1144.33 1070.98 1143.82 1067.71 1142.78 1064.63 1141.26 1058.44 1138.08 1048.45 1138.55 1041.86 1140.26 1040.4 1141.1 1040.4 1141.1 1039.02 1142.1 1036.49 1143.1 1033.85 1143.85 1031.17 1144.33L1030.02 1144.55 1027.76 1144.93C1025.78 1145.3 1025.07 1145.43 1023.85 1147.08L1022.97 1148.47C1021.65 1149.22 1021.65 1149.22 1020.2 1149.8 1018.19 1150.57 1016.44 1151.89 1015.15 1153.59 1014.38 1154.52 1013.51 1155.26 1012.57 1156.02 1010.94 1157.36 1009.66 1158.72 1008.34 1160.33L1007.16 1161.36C1005.92 1162.76 1004.95 1164.36 1004.28 1166.11 1003.6 1167.16 1003.6 1167.16 1002.43 1167.78 1001.04 1168.68 1000.84 1169.4 1000.48 1170.95L1000.28 1171.9 999.828 1173.87 999.593 1174.87C999.156 1176.7 998.653 1178.52 998.065 1180.32 997.562 1181.56 997.025 1182.44 996.286 1183.56 994.608 1186.41 994.575 1189.51 994.356 1192.73 993.668 1202.2 993.668 1202.2 990.328 1205.39L989.287 1206.39C986.333 1208.54 983.379 1208.89 979.753 1208.84L978.578 1208.84C975.708 1208.97 972.888 1208.06 970.673 1206.24 969.867 1205.47 969.061 1204.69 968.272 1203.91 966.225 1201.52 966.124 1199.25 966.007 1196.27L965.94 1195.02C965.839 1191.58 965.856 1188.13 966.007 1184.69L966.057 1183.24C966.459 1174.14 966.459 1174.14 968.692 1170.82L969.598 1170.13C971.092 1168.4 971.31 1166.43 971.747 1164.26 972.519 1160.59 973.257 1158.26 975.977 1155.51 977.219 1154.12 977.689 1152.64 978.31 1150.92 979.317 1148.2 979.317 1148.2 980.357 1147.37L981.23 1146.98C983.026 1146.1 983.093 1145.93 983.748 1144.23 984.587 1142.06 985.796 1141.05 987.609 1139.63 988.817 1138.63 989.556 1137.43 990.395 1136.16 991.167 1135.53 991.956 1134.93 992.745 1134.33L993.886 1133.24C997.747 1129.51 997.747 1129.51 999.929 1128.89 1001.61 1128.27 1001.88 1127.47 1002.65 1125.97 1003.65 1124.44 1005.38 1124.05 1007.08 1123.47L1008.29 1123.05 1009.4 1122.68C1010.52 1122.1 1011.54 1121.33 1012.42 1120.43 1014.6 1118.55 1016.61 1118.11 1019.43 1117.66 1022.66 1117.11 1024.8 1116.46 1027.36 1114.43 1028.28 1113.73 1029.34 1113.25 1030.48 1112.99L1031.53 1112.69C1035.73 1111.93 1039.94 1111.91 1044.21 1111.91Z" fill="#212529" fill-rule="evenodd"/><path d="M1247 1492 1246.86 1492.69 1246.11 1496.94 1245.85 1498.42C1244.73 1504.42 1244.73 1504.42 1242.36 1506.55 1241.34 1507.11 1241.34 1507.11 1240.31 1507.11L1240.06 1508.33C1239.12 1512.51 1238.09 1515.86 1234.63 1518.6 1233.36 1519.61 1232.38 1520.96 1231.83 1522.49 1230.73 1524.93 1229.62 1525.75 1227.29 1526.95 1226.13 1527.76 1225.83 1528.41 1225.3 1529.69 1224.38 1531.9 1223.28 1532.31 1221.12 1533.19 1219.91 1533.88 1219.56 1534.54 1218.92 1535.78L1218.62 1536 1033.18 1536 1032.04 1535.31C1030.39 1533.38 1028.62 1532.53 1026.34 1531.45 1025.13 1530.83 1024.13 1529.84 1023.49 1528.64L1023.49 1527.1 1022.13 1526.73C1018.89 1525.53 1017.36 1524.33 1015.82 1521.3 1015.04 1520.23 1014.34 1519.95 1013.13 1519.44 1011.36 1518.69 1010.77 1518.13 1010.06 1516.37 1009.27 1514.49 1008.53 1513.9 1006.67 1513.02 1004.33 1511.89 1003.78 1510.9 1002.83 1508.59 1001.94 1507.1 1000.64 1506.68 999.072 1506.03 997.968 1505.54 997.066 1504.66 996.57 1503.54L996.201 1502.26C995.282 1500.52 994.141 1500.2 992.374 1499.42 991.27 1498.89 990.387 1498.01 989.853 1496.89L989.486 1495.59C988.695 1494.09 988.363 1494.04 986.836 1493.42L986 1492.58 1031.71 1492.58 1032.76 1493.81C1033.85 1495.37 1034.53 1495.87 1036.13 1496.81 1037.69 1497.64 1038.98 1498.93 1039.79 1500.52 1040.99 1502.73 1042.37 1503.18 1044.67 1504.02 1045.92 1504.66 1046.18 1505.11 1046.75 1506.36 1047.33 1507.62 1047.61 1508.05 1048.92 1508.67L1050.22 1509.12C1052.47 1509.87 1053.63 1510.73 1055.21 1512.47 1057.46 1514.91 1059.7 1515.81 1062.85 1516.78 1064.87 1517.57 1065.96 1518.65 1067.12 1520.47 1068.18 1521.69 1068.75 1521.82 1070.32 1522.1L1071.7 1522.38 1073.17 1522.64C1077.03 1523.45 1080.07 1524.31 1083.18 1526.82 1087.1 1529.09 1092.05 1528.79 1096.43 1528.77L1144.63 1528.77C1158.2 1529.63 1158.2 1529.63 1170.36 1525.29 1173.1 1523.51 1176.72 1523.28 1179.91 1522.7 1182.85 1522.27 1185.59 1520.86 1187.69 1518.73 1189.38 1517.12 1191.43 1516.44 1193.6 1515.64 1195.47 1514.72 1196.03 1514.12 1196.85 1512.25L1196.85 1511.22 1197.99 1510.8C1200.44 1509.77 1201.9 1509.02 1203.24 1506.7 1204.07 1505.18 1205.28 1503.95 1206.75 1503.09 1208.98 1501.59 1209.35 1500.13 1209.95 1497.6 1210.6 1495.42 1212.02 1494.08 1213.73 1492.6L1213.73 1492.58 1244.16 1492.58 1247 1492Z" fill="#212529" fill-rule="evenodd"/><path d="M860.562 767 1116.16 767C1116.23 767 1116.3 767 1116.38 767L1124.59 767C1152.95 766.998 1180.14 778.326 1200.14 798.476L1319.99 919.202C1339.85 939.211 1351 966.284 1351 994.506L1351 1002.59 1351 1022.53 1351 1429.22C1351 1488.19 1303.29 1536 1244.44 1536L1218.9 1536 1219.2 1535.78C1219.84 1534.56 1220.19 1533.92 1221.41 1533.24 1223.56 1532.37 1224.66 1531.96 1225.58 1529.79 1226.12 1528.54 1226.41 1527.89 1227.57 1527.1 1229.9 1525.92 1231.01 1525.11 1232.11 1522.71 1232.66 1521.2 1233.64 1519.88 1234.91 1518.88 1238.36 1516.19 1239.39 1512.89 1240.33 1508.78L1240.59 1507.58C1241.62 1507.58 1241.62 1507.58 1242.63 1507.03 1245 1504.93 1245 1504.93 1246.12 1499.03L1246.38 1497.58 1247.14 1493.39 1247.27 1492.71 1269.32 1488.25C1292.27 1478.53 1308.37 1455.76 1308.37 1429.22L1308.37 1022.53 1308.37 1002.59C1308.37 990.8 1298.83 981.238 1287.06 981.238L1201.41 981.238C1166.1 981.238 1137.47 952.555 1137.47 917.171L1137.47 831.067C1137.47 819.315 1127.99 809.78 1116.29 809.712 1116.24 809.712 1116.2 809.712 1116.16 809.712L1090.67 809.713C1090.59 809.713 1090.5 809.713 1090.42 809.712L860.562 809.712C825.25 809.712 796.625 838.395 796.625 873.778L796.625 1429.22C796.625 1464.6 825.25 1493.29 860.562 1493.29L986.395 1493.29 987.231 1494.11C988.757 1494.72 989.089 1494.78 989.879 1496.25L990.247 1497.52C990.78 1498.63 991.663 1499.49 992.767 1500.01 994.532 1500.78 995.673 1501.1 996.592 1502.81L996.96 1504.06C997.456 1505.17 998.358 1506.04 999.461 1506.51 1001.02 1507.16 1002.33 1507.57 1003.21 1509.04 1004.17 1511.31 1004.72 1512.28 1007.06 1513.39 1008.91 1514.25 1009.65 1514.84 1010.44 1516.69 1011.16 1518.42 1011.75 1518.97 1013.51 1519.71 1014.73 1520.21 1015.42 1520.48 1016.2 1521.53 1017.74 1524.52 1019.27 1525.7 1022.51 1526.88L1023.87 1527.25 1023.87 1528.76C1024.51 1529.94 1025.5 1530.91 1026.72 1531.52 1029 1532.59 1030.76 1533.42 1032.42 1535.32L1033.56 1536 860.562 1536C801.709 1536 754 1488.19 754 1429.22L754 873.778C754 814.806 801.709 767 860.562 767ZM1180.1 838.845 1180.1 917.171C1180.1 928.966 1189.64 938.527 1201.41 938.527L1279.05 938.527 1180.1 838.845Z" fill="#212529" fill-rule="evenodd"/><path d="M1056.24 1206.08C1065.6 1205.72 1066.72 1206.52 1071.18 1209.69L1072.34 1210.88C1073.68 1212.08 1075.23 1213.02 1076.9 1213.64 1080.23 1215.19 1080.23 1215.19 1081.17 1217.04 1081.91 1218.88 1081.91 1218.88 1083.75 1219.52 1086.42 1220.77 1087.25 1223.59 1088.39 1226.07 1089.33 1227.85 1090.41 1228.9 1091.88 1230.3 1092.46 1231.4 1092.46 1231.4 1092.81 1232.47 1092.9 1232.83 1093.03 1233.16 1093.14 1233.53 1094.06 1237.56 1094.04 1241.57 1094.06 1245.66L1094.06 1247.72 1094.09 1252.14 1094.13 1259.1 1094.22 1275.13 1094.31 1289.84C1094.33 1293.57 1094.35 1297.32 1094.37 1301.05L1094.37 1304.01 1094.39 1305.8 1094.39 1307.32C1094.48 1308.68 1094.68 1309.9 1094.99 1311.22L1096.1 1310.76C1099.49 1309.55 1102.91 1309.62 1106.48 1309.62L1108.01 1309.62C1112.76 1309.6 1117.6 1309.68 1121.39 1312.75L1122.31 1313.72C1123.73 1314.99 1125.16 1315.52 1126.95 1316.26 1130.94 1318.02 1132.91 1320.45 1134.86 1324.29L1134.86 1325.3 1136.24 1325.71C1137.35 1326.02 1138.38 1326.5 1139.32 1327.16 1140.48 1327.89 1140.48 1327.89 1141.64 1327.82 1142.74 1327.36 1142.74 1327.36 1143.33 1326.11 1144.56 1324.18 1146.18 1323.57 1148.41 1323 1150.27 1322.76 1152.15 1322.65 1154.02 1322.69L1155.24 1322.69 1157.76 1322.67 1161.59 1322.64C1170.68 1322.58 1170.68 1322.58 1174.29 1325.1L1175.13 1325.93C1176.77 1327.45 1178.39 1328.43 1180.4 1329.46 1184.04 1331.42 1186.33 1334.27 1188.17 1337.88 1190.38 1339.2 1192.4 1340.17 1194.9 1340.89L1195.68 1339.51C1197.07 1337.49 1198.79 1336.64 1201.11 1335.85 1209.2 1334.53 1222.33 1333.65 1229.58 1337.88L1230.5 1339.07C1231.79 1340.52 1232.67 1340.91 1234.48 1341.64 1237.05 1342.71 1239.21 1343.8 1240.38 1346.42 1241.1 1347.64 1241.67 1347.86 1242.96 1348.43 1245.54 1349.9 1246.09 1351.92 1247.07 1354.57 1247.47 1355.73 1248.26 1356.7 1249.31 1357.33 1252.05 1359.44 1252.42 1362.79 1252.88 1366.02 1252.96 1367.53 1252.96 1369.04 1252.96 1370.52L1252.96 1393.96 1252.97 1413.19 1252.97 1431.06 1252.99 1446.45C1252.97 1452.39 1252.97 1458.34 1252.99 1464.28L1252.99 1467.41C1253.03 1472.41 1252.96 1477.35 1252.44 1482.33L1252.35 1483.49C1251.98 1486.63 1251.37 1490.05 1248.74 1492.19L1247.71 1492.19 1247.66 1492.43 1244.82 1493 1214.38 1493 1215.85 1489.87 1216.25 1488.4 1217.12 1484.61C1218 1480.57 1219.01 1477.07 1221.17 1473.45 1222.51 1470.68 1222.44 1467.63 1222.42 1464.63L1222.42 1459.63 1222.44 1456.89 1222.44 1428.54 1222.46 1413.41 1222.48 1400.42 1222.48 1377.95C1222.49 1375.76 1222.11 1373.59 1221.32 1371.55 1219.84 1370.64 1219.84 1370.64 1218.2 1370.05 1216.73 1368.91 1216.31 1367.71 1215.63 1366 1214.16 1365.3 1212.87 1365.45 1211.21 1365.45L1209.41 1365.45C1207.9 1365.41 1207.9 1365.41 1206.83 1366L1206.15 1367.44C1205.16 1369.48 1203.31 1370.98 1201.12 1371.55 1200.35 1373.89 1199.98 1376.22 1199.61 1378.65 1198.84 1383.12 1196.95 1385.76 1193.36 1388.63 1189.22 1390.99 1183.75 1390.6 1179.09 1389.97 1176 1389.06 1173.51 1386.57 1171.62 1384.11 1169.59 1380.32 1169.82 1376.3 1169.78 1372.11 1169.98 1365.41 1169.98 1365.41 1168.51 1358.98 1167.55 1358.23 1166.5 1357.6 1165.4 1357.09 1163.7 1356.06 1163.15 1354.68 1162.31 1352.95 1157.56 1352.32 1157.56 1352.32 1153.32 1353.87 1152.42 1355.06 1152.42 1355.06 1151.74 1356.3 1150.91 1357.47 1150.91 1357.47 1149.35 1358.32 1146.79 1360.27 1146.99 1363.02 1146.64 1366.04 1145.91 1370.93 1142.96 1373.69 1139 1376.57 1136.65 1377.34 1134.33 1377.2 1131.86 1377.2L1130.32 1377.23C1126.63 1377.45 1123.03 1376.11 1120.38 1373.56L1119.86 1372.55 1118.81 1372.55C1117.63 1369.64 1116.99 1366.54 1116.94 1363.39L1116.86 1362.11C1116.75 1359.42 1116.64 1356.76 1116.57 1354.07L1116.47 1351.59C1116.53 1349.62 1116.09 1347.67 1115.19 1345.91 1114.27 1345.21 1114.27 1345.21 1113.2 1344.71 1110.9 1343.45 1110.09 1342.16 1108.98 1339.88L1105.43 1339.84 1103.43 1339.84C1101.79 1339.77 1101.79 1339.77 1100.7 1340.39 1099.54 1342.29 1099.54 1342.29 1099.16 1344.4 1097.79 1344.95 1096.41 1345.45 1095.01 1345.91 1092.95 1349.92 1093.82 1355.84 1093.76 1360.27 1093.63 1369.31 1093.63 1369.31 1090.82 1372.95 1090.45 1373.32 1090.04 1373.67 1089.64 1374.04L1088.46 1375.14C1085.53 1377.38 1082.63 1377.27 1079.07 1377.27 1078.56 1377.27 1078.06 1377.27 1077.55 1377.31 1074.01 1377.53 1070.52 1376.35 1067.85 1374.02L1066.85 1372.91 1065.84 1371.85C1063.78 1368.72 1063.82 1365.16 1063.82 1361.55L1063.82 1360.06 1063.8 1355.19 1063.78 1351.68 1063.76 1344.14 1063.72 1333.22 1063.69 1315.5 1063.69 1313.37 1063.63 1298.33 1063.63 1297.27 1063.58 1279.62 1063.54 1267.76 1063.54 1260.39 1063.52 1256.97 1063.52 1250.94C1063.5 1248.55 1063.39 1246.23 1062.91 1243.86 1062.07 1243.07 1062.07 1243.07 1060.94 1242.65 1058.75 1241.51 1058.02 1240.37 1057.12 1238.18 1056.75 1237.23 1056.75 1237.23 1055.66 1236.84 1054.56 1236.77 1053.45 1236.73 1052.35 1236.71L1050.53 1236.68C1048.96 1236.69 1048.96 1236.69 1048 1237.5L1047.99 1237.5C1047.43 1238.24 1046.94 1239.03 1046.46 1239.82 1045.74 1240.98 1044.66 1241.86 1043.38 1242.36 1041.54 1243.18 1041.54 1243.18 1041.3 1244.75 1041.16 1246.4 1041.08 1248.05 1041.08 1249.71L1041.08 1256.35 1041.07 1262.84 1041.07 1269.84 1041.03 1281.97 1041.01 1299.56C1040.97 1309.07 1040.97 1318.59 1040.96 1328.1L1040.96 1329.82 1040.92 1354.07 1040.92 1357.51C1040.9 1376.83 1040.86 1396.15 1040.81 1415.47L1040.81 1422.4C1040.81 1425.29 1040.79 1428.16 1040.77 1431.04 1040.81 1442.72 1040.81 1442.72 1038.05 1446.45 1036.76 1447.17 1035.6 1447.73 1034.26 1448.29L1033.24 1448.75C1030.37 1449.98 1027.67 1451.12 1024.48 1451.14L1023.17 1451.14C1021.7 1450.92 1021.46 1450.46 1020.45 1449.46 1018.76 1448.8 1017.06 1448.25 1015.33 1447.7 1013.79 1447.02 1012.5 1445.88 1011.65 1444.43 1009.9 1442.18 1009.9 1442.18 1007.51 1440.73 1005.85 1439.87 1005.6 1439.5 1004.71 1437.97 1003.98 1436.52 1002.76 1435.34 1001.29 1434.63 999.21 1433.52 998.437 1432.27 997.296 1430.29 996.688 1429.41 995.842 1428.73 994.83 1428.34 993.468 1427.77 992.382 1426.7 991.756 1425.36 991.02 1423.91 989.823 1422.75 988.351 1422.05 986.271 1420.95 985.516 1419.74 984.394 1417.75 983.363 1416.34 982.038 1415.73 980.51 1414.92 979.571 1414.31 978.853 1413.45 978.412 1412.42 977.675 1410.73 977.675 1410.73 976.368 1410.16 971.914 1408.93 966.852 1409.55 962.472 1410.77 962.122 1411.92 961.791 1413.1 961.441 1414.26L961.146 1415.27C960.742 1417.11 960.852 1418.95 960.907 1420.8L960.907 1421.91C960.963 1423.43 961.128 1424.54 962.233 1425.64 963.999 1426.94 963.999 1426.94 966.098 1427.35L966.447 1428.69C967.368 1431.01 968.73 1432.37 970.975 1433.52 972.098 1434.22 973.055 1435.16 973.755 1436.28 975.08 1438.05 976.737 1439.54 978.614 1440.69 979.534 1441.43 979.534 1441.43 980.547 1442.9 981.835 1444.76 983.363 1445.77 985.185 1447.09 986.289 1447.96 986.289 1447.96 987.338 1449.52 988.369 1450.99 988.866 1451.36 990.394 1452.17 992.179 1453.18 993.596 1454.72 994.443 1456.58 995.456 1458.05 996.578 1458.69 998.179 1459.52L999.229 1459.52 999.578 1460.58C1000.48 1462.75 1002.06 1464.56 1004.11 1465.73 1005.25 1466.43 1006.22 1467.39 1006.92 1468.53 1007.97 1469.96 1008.76 1470.82 1010.38 1471.58 1012.15 1472.57 1012.46 1472.86 1013.4 1474.5 1014.65 1476.69 1016.29 1477.85 1018.35 1479.28 1019.73 1480.38 1020.51 1481.71 1021.48 1483.14 1022.64 1484.06 1023.86 1484.92 1025.05 1485.79 1026.43 1486.89 1027.22 1488.23 1028.22 1489.69 1029.25 1490.48 1030.32 1491.19 1031.38 1491.95L1032.3 1493 986.576 1493 983.952 1490.42C982.829 1488.16 981.817 1487.63 979.46 1486.71 978.264 1486.01 978.025 1485.42 977.51 1484.17 976.718 1482.33 975.982 1481.74 974.123 1480.88 971.785 1479.78 971.233 1478.8 970.276 1476.54 969.392 1475.07 968.086 1474.67 966.521 1474.02 965.417 1473.54 964.515 1472.68 964.018 1471.58L963.65 1470.33C962.877 1468.86 962.49 1468.77 960.981 1468.12 958.533 1467.07 957.889 1465.86 956.766 1463.53 956.122 1462.24 955.661 1462.24 954.318 1461.74 952.716 1461.12 951.447 1459.85 950.821 1458.25 949.716 1455.99 948.704 1455.49 946.367 1454.57 944.747 1453.62 944.231 1452.11 943.422 1450.49 942.501 1449 941.287 1448.62 939.685 1447.96 938.378 1446.82 937.477 1445.29 937.127 1443.58L936.575 1441.93C935.36 1441.34 935.36 1441.34 933.998 1440.91 931.384 1438.63 931.182 1435.55 930.593 1432.35 930.39 1431.26 930.188 1430.18 929.985 1429.09L929.727 1427.62C929.341 1426.39 928.678 1425.25 927.777 1424.31 926.562 1420.34 926.783 1416.08 928.365 1412.24 929.783 1409.17 930.464 1405.86 931.127 1402.59 931.807 1399.33 932.434 1397.31 935.267 1395.27 936.391 1394.37 937.274 1393.21 937.881 1391.9 939.299 1389.28 940.826 1388.1 943.551 1386.72 944.876 1386.04 945.998 1385.05 946.845 1383.83 949.128 1381.1 952.22 1380.87 955.643 1380.23L956.674 1380.05 959.656 1379.5C961.22 1379.13 962.693 1378.48 964.018 1377.58 967.736 1376.26 971.546 1376.33 975.411 1377.07L978.025 1378.6C979.958 1379.55 982.111 1379.79 984.246 1380.12 989.952 1381.06 989.952 1381.06 992.492 1382.6L993.413 1384.05C994.646 1385.73 995.235 1386.02 997.112 1386.81 999.597 1387.92 1000.42 1388.94 1001.66 1391.22 1002.65 1392.62 1003.94 1392.99 1005.51 1393.61 1007.22 1394.59 1007.71 1396 1008.54 1397.7L1009.06 1398.69C1010.79 1395.32 1010.16 1390.42 1010.16 1386.74L1010.16 1384.81 1010.18 1379.55 1010.18 1373.85 1010.22 1364 1010.24 1349.73C1010.27 1342.01 1010.27 1334.29 1010.29 1326.55L1010.29 1325.15 1010.33 1305.48 1010.33 1302.69C1010.35 1287.01 1010.38 1271.31 1010.44 1255.63L1010.44 1249.99 1010.47 1243.88 1010.47 1242.1C1010.53 1232.5 1010.53 1232.5 1013.71 1228.79L1015 1227.67C1016.07 1226.6 1016.82 1225.26 1017.21 1223.81 1018.19 1221.16 1019.53 1220.3 1021.98 1218.92 1023.45 1217.96 1023.91 1216.78 1024.59 1215.22 1025.94 1214.1 1027.52 1213.27 1029.21 1212.79 1030.78 1212.39 1032.16 1211.45 1033.13 1210.17 1035.75 1207.17 1039.87 1207.08 1043.7 1206.77 1049.08 1206.44 1053.12 1206.19 1056.24 1206.08Z" fill="#212529" fill-rule="evenodd"/><path d="M1034 1536 1219 1536 1213.95 1539.64C1212.3 1540.46 1211.68 1541.7 1210.71 1543.17 1208.54 1544.5 1206.13 1545.4 1203.6 1545.81 1201.29 1546.35 1201.29 1546.35 1199.69 1548.07 1199.4 1548.55 1199.12 1549.05 1198.83 1549.54 1195.95 1551.26 1192.83 1551.62 1189.52 1552.14 1186.97 1552.48 1184.62 1553.63 1182.82 1555.42 1181.72 1555.96 1181.72 1555.96 1180.73 1556.28L1179.74 1556.62C1173.35 1558.34 1166.25 1557.95 1159.67 1557.95L1146.09 1557.95 1131.22 1557.96 1117.4 1557.98 1091.72 1557.98 1089.27 1558C1085.13 1558 1081.01 1557.89 1076.88 1557.46L1075.78 1557.34C1072.59 1556.98 1069.23 1556.05 1066.97 1553.72 1066.16 1553 1065.17 1552.53 1064.09 1552.37 1063.69 1552.28 1063.28 1552.17 1062.88 1552.07L1060.4 1551.49C1057.15 1550.7 1054.38 1549.77 1052.07 1547.33 1050.85 1546.27 1049.39 1545.52 1047.81 1545.16 1045.51 1544.64 1043.55 1543.21 1042.39 1541.22L1042.39 1540.23 1041.16 1540.18 1034 1536Z" fill="#212529" fill-rule="evenodd"/></g></svg>