<svg width="399" height="399" xmlns="http://www.w3.org/2000/svg" xmlns:xlink="http://www.w3.org/1999/xlink" xml:space="preserve" overflow="hidden"><g transform="translate(-2451 -1212)"><path d="M2608.5 1392C2618.72 1392 2627 1400.06 2627 1410 2627 1419.94 2618.72 1428 2608.5 1428 2598.28 1428 2590 1419.94 2590 1410 2590 1400.06 2598.28 1392 2608.5 1392Z" fill-rule="evenodd"/><path d="M2690.15 1422.64 2736 1446.32 2736 1488.85C2736 1495.56 2730.56 1501 2723.86 1501L2578.14 1501C2571.44 1501 2566 1495.56 2566 1488.85L2566 1476.7C2566 1476.7 2603.4 1445.73 2605.8 1447.34L2638.1 1468.87 2683.13 1423.79C2684.98 1421.93 2687.81 1421.47 2690.15 1422.64Z" fill-rule="evenodd"/><path d="M2552 1339C2547.03 1339 2543 1334.97 2543 1330 2543 1325.03 2547.03 1321 2552 1321L2750 1321C2754.97 1321 2759 1325.03 2759 1330 2759 1334.97 2754.97 1339 2750 1339ZM2588 1303C2583.03 1303 2579 1298.97 2579 1294 2579 1289.03 2583.03 1285 2588 1285L2714 1285C2718.97 1285 2723 1289.03 2723 1294 2723 1298.97 2718.97 1303 2714 1303ZM2507 1510C2507 1524.91 2519.09 1537 2534 1537L2768 1537C2782.91 1537 2795 1524.91 2795 1510L2795 1384C2795 1369.09 2782.91 1357 2768 1357L2534 1357C2519.09 1357 2507 1369.09 2507 1384ZM2534 1519C2529.03 1519 2525 1514.97 2525 1510L2525 1384C2525 1379.03 2529.03 1375 2534 1375L2768 1375C2772.97 1375 2777 1379.03 2777 1384L2777 1510C2777 1514.97 2772.97 1519 2768 1519Z" fill-rule="evenodd"/></g></svg>